<svg width="20" height="20" viewBox="0 0 20 20" fill="none" xmlns="http://www.w3.org/2000/svg">
    <circle cx="10" cy="10" r="10" fill="#E7564D"/>
    <path d="M14.3167 11.7531C14.5171 11.7894 14.7091 11.8128 14.8926 11.8128C16.4314 11.8128 17.2711 10.6286 17.2711 9.36172C17.2711 8.09488 16.4314 7.21704 14.8926 7.21704C14.7442 7.21704 14.5895 7.23343 14.4313 7.25683"
          stroke="white"/>
    <path d="M4.61853 11.3361C4.81467 13.713 6.82379 15.5879 9.26453 15.5879C11.305 15.5879 13.1656 14.2785 13.8465 12.461C13.9415 12.2076 14.1228 11.4593 14.1228 11.0827V7.25239V6.12674V5.41162H13.4038H5.32202H4.60303V6.12674V10.6215V11.3361H4.61853Z"
          fill="white" stroke="white" stroke-width="0.848024" stroke-linejoin="round"/>
    <path fill-rule="evenodd" clip-rule="evenodd"
          d="M11.0239 10.7217C10.9788 10.766 10.9573 10.8291 10.969 10.8915L11.2601 12.5727C11.2873 12.7294 11.1207 12.8493 10.9782 12.775L9.45406 11.9815C9.39731 11.9522 9.32946 11.9522 9.27271 11.9815L7.74792 12.775C7.60543 12.8493 7.43889 12.7294 7.46603 12.5727L7.75717 10.8915C7.76828 10.8291 7.7473 10.766 7.70166 10.7217L6.46739 9.53116C6.35205 9.42003 6.41558 9.2265 6.57472 9.2034L8.28024 8.95805C8.34316 8.94931 8.39805 8.90998 8.42643 8.85317L9.18882 7.32426C9.26037 7.1813 9.46578 7.1813 9.53733 7.32426L10.2991 8.85317C10.3281 8.90998 10.3824 8.94931 10.4459 8.95805L12.1514 9.2034C12.3106 9.2265 12.3735 9.42003 12.2581 9.53116L11.0239 10.7217Z"
          fill="#E7564D"/>
</svg>
